<svg width="500" height="128" xmlns="http://www.w3.org/2000/svg" preserveAspectRatio="xMidYMid meet" version="1.0">

 <g>
  <title>Layer 1</title>
  <g id="svg_1" fill="#000000" transform="translate(0 128) scale(0.1 -0.1)">
   <path id="svg_2" d="m503,1198c-268,-7 -315,-14 -361,-53c-49,-41 -52,-67 -52,-524c0,-397 1,-424 19,-460c14,-26 33,-43 62,-57c39,-17 65,-19 264,-17c121,0 324,5 452,10l232,8l30,29c50,48 54,90 48,497c-6,454 -13,491 -107,539c-19,10 -50,21 -68,25c-47,10 -231,11 -519,3zm557,-45c99,-45 101,-57 107,-532c4,-336 3,-389 -11,-426c-9,-23 -27,-47 -39,-54c-26,-14 -266,-23 -662,-25c-264,-1 -294,4 -320,55c-13,23 -15,102 -15,461c0,417 1,434 20,466c34,56 71,65 300,73c113,3 288,6 390,5c162,-2 190,-5 230,-23z"/>
   <path id="svg_3" d="m320,985c-21,-26 -19,-170 4,-215c28,-54 452,-468 489,-476c40,-8 153,5 165,19c5,7 12,46 16,87c5,63 3,79 -12,100c-32,44 -456,467 -480,480c-13,6 -56,14 -96,17c-60,5 -74,3 -86,-12z"/>
   <path id="svg_4" d="m745,991c-24,-5 -30,-11 -30,-31c0,-20 13,-31 70,-63c91,-50 100,-58 142,-144c38,-76 62,-92 82,-54c14,26 32,188 24,220c-10,43 -32,59 -87,65c-98,10 -171,12 -201,7z"/>
   <path id="svg_5" d="m291,586c-8,-9 -15,-61 -18,-128c-6,-111 -5,-114 20,-143c24,-29 27,-30 136,-33c92,-4 116,-1 137,13c44,29 29,55 -59,101c-97,50 -111,65 -140,139c-24,63 -51,81 -76,51z"/>
  </g>
  <text stroke-width="0" font-weight="bold" transform="matrix(3.33052 0 0 2.81361 -290.931 20.3572)" stroke="#000" xml:space="preserve" text-anchor="start" font-family="'Catamaran'" font-size="24" id="svg_9" y="22.77875" x="132.08264" fill="#000000">NewsHub</text>
 </g>
</svg>